inDegrees=no
num_controls=7
num_derivatives=13
num_iterations=69
num_multipliers=7
num_parameters=0
num_slacks=7
num_states=26
objective=0.333923
objective_accelerations=0.037043
objective_balance=0.001338
objective_effort=0.027208
objective_height=0.266853
objective_ligament=0.001481
solver_duration=728.781604
status=Solve_Succeeded
success=true
DataType=double
version=3
OpenSimVersion=4.5
endheader
time	/jointset/ground_pelvis/pelvis_tilt/value	/jointset/ground_pelvis/pelvis_tx/value	/jointset/ground_pelvis/pelvis_ty/value	/jointset/hip_r/hip_flexion_r/value	/jointset/hip_r/hip_adduction_r/value	/jointset/hip_r/hip_rotation_r/value	/jointset/back/lumbar_extension/value	/jointset/patellofemoral_r/patellar_flexion_r/value	/jointset/knee_r/knee_flexion_r/value	/jointset/knee_r/knee_adduction_r/value	/jointset/knee_r/knee_rotation_r/value	/jointset/ankle_r/ankle_angle_r/value	/jointset/subtalar_r/subtalar_angle_r/value	/jointset/ground_pelvis/pelvis_tilt/speed	/jointset/ground_pelvis/pelvis_tx/speed	/jointset/ground_pelvis/pelvis_ty/speed	/jointset/hip_r/hip_flexion_r/speed	/jointset/hip_r/hip_adduction_r/speed	/jointset/hip_r/hip_rotation_r/speed	/jointset/back/lumbar_extension/speed	/jointset/patellofemoral_r/patellar_flexion_r/speed	/jointset/knee_r/knee_flexion_r/speed	/jointset/knee_r/knee_adduction_r/speed	/jointset/knee_r/knee_rotation_r/speed	/jointset/ankle_r/ankle_angle_r/speed	/jointset/subtalar_r/subtalar_angle_r/speed	/forceset/tau_hip_flexion_r	/forceset/tau_hip_adduction_r	/forceset/tau_hip_rotation_r	/forceset/tau_knee_flexion_r	/forceset/tau_ankle_angle_r	/forceset/tau_subtalar_angle_r	/forceset/tau_lumbar_extension	lambda_cid13_p0	lambda_cid14_p0	lambda_cid14_p1	lambda_cid14_p2	lambda_cid14_p3	lambda_cid14_p4	lambda_cid14_p5	/jointset/ground_pelvis/pelvis_tilt/accel	/jointset/ground_pelvis/pelvis_tx/accel	/jointset/ground_pelvis/pelvis_ty/accel	/jointset/hip_r/hip_flexion_r/accel	/jointset/hip_r/hip_adduction_r/accel	/jointset/hip_r/hip_rotation_r/accel	/jointset/back/lumbar_extension/accel	/jointset/patellofemoral_r/patellar_flexion_r/accel	/jointset/knee_r/knee_flexion_r/accel	/jointset/knee_r/knee_adduction_r/accel	/jointset/knee_r/knee_rotation_r/accel	/jointset/ankle_r/ankle_angle_r/accel	/jointset/subtalar_r/subtalar_angle_r/accel	gamma_cid13_p0	gamma_cid14_p0	gamma_cid14_p1	gamma_cid14_p2	gamma_cid14_p3	gamma_cid14_p4	gamma_cid14_p5
0	-0.011449202678795	0.1340359963195139	0.9325194570362132	0.1934211968871041	-0.237682541263155	-0.2336372108921764	-0.2903787966825928	0.2311786273363445	0.2311786273363406	0.1537733108782657	0.171265123142866	0.089344008118978	0.0519878462650937	0	0	0	0	0	0	0	0	0	0	0	0	0	0.1025747620572256	-0.03626514510369911	0.007116329755587759	-0.2381419157187794	0.1136770497742443	-0.1290123974201735	-0.02527262939549111	-29.93903185608624	-11.76877514620862	-52.93069109029904	2.966549097100891	5.480097461932878	-611.5322796587997	15.92199429959296	-1.946321086256535	-1.938326273601909	-0.8117442427520113	10.2418716138379	0.4530222105585627	2.434452200105983	-6.366898202618322	10.12047623691135	10.12047623691137	-3.520354275195297	0.07920169334812255	2.760653061262346	1.299940095537833	1.392891060160817e-07	9.031086062755328e-08	-8.920363833079713e-07	5.615964340545531e-07	3.589397873980133e-08	2.313664718870253e-07	-7.317375950336616e-07
0.01	-0.01154326498466817	0.1339414663380273	0.9324797329024336	0.1939224388645462	-0.2376590457070716	-0.2335167346740083	-0.2906970106388307	0.2316763841903682	0.2316763841903604	0.1535976072563531	0.1712675064617475	0.0894814275854869	0.05205373528491563	-0.01901375608903743	-0.01868794613850145	-0.007957306563264528	0.09992991810407865	0.004495259116993988	0.02375708865699816	-0.06306815289565078	0.09917302724206238	0.09917302724206088	-0.03462036885131353	0.0008049275991674122	0.02746618006558757	0.01292828031551329	0.1051182103739542	-0.05802677244813853	0.006480303390744404	-0.2479000307664468	0.1256171755025951	-0.1156134432466497	-0.02585053711731145	-29.94340624972872	-7.255370070856282	-46.24954957725028	1.819479906609285	0.3031448951361794	-612.8727714663992	30.85143391878422	-1.90909363316222	-1.80131408150684	-0.7895495609113665	9.8207868521385	0.4171682340764493	2.295730959303956	-6.19057808014055	9.758936575783421	9.758936575783231	-3.354912034740718	0.1304910251032062	2.736967466185066	1.251768753721149	1.150035122266485e-07	6.138425551367879e-08	-7.185479628503096e-07	5.29851491066172e-07	4.007579401123395e-08	1.362302207994892e-07	-6.587487427058356e-07
0.02	-0.01183350300402144	0.133666599835649	0.9323600705634616	0.195413427011718	-0.2375967194654562	-0.2331688088171106	-0.2916286669734462	0.2331545154383919	0.2331545154383916	0.1530912931770097	0.1712878096030138	0.0898929822500458	0.05224140645872535	-0.03923514269546231	-0.03606730417833489	-0.01598764103845623	0.1979492339459821	0.007766137106248266	0.04548992774628338	-0.1226884756753784	0.1960748788013157	0.1960748788013145	-0.06612209148828288	0.003583964474421557	0.0548270396103	0.02435643079755007	0.107661658690701	-0.07978839979256623	0.005844277025954482	-0.2576581458141088	0.1375573012309536	-0.1022144890731104	-0.02642844483912321	-29.95665931273465	-2.66159894844832	-39.57993792349291	0.7034939332093708	-4.78331293110416	-612.8716875600373	45.42392933702589	-2.187847189733968	-1.676608653868362	-0.8263498251374435	9.859751161402865	0.2081459850106176	2.029602286563392	-5.67733217943365	9.666241100349565	9.666241100349936	-2.896625032326462	0.4740235485654795	2.739588957087262	0.9999141288425109	9.071791843721532e-08	3.24576503998043e-08	-5.45059542392648e-07	4.981065480777911e-07	4.425760928266656e-08	4.109396971195309e-08	-5.857598903780095e-07
0.03	-0.01232831517168431	0.1332230601953827	0.9321599625283554	0.1978724629316234	-0.2375058031777142	-0.2326127075065742	-0.2931416727052963	0.2355886917433938	0.2355886917433964	0.1522819103655534	0.1713428916695103	0.09057598654021452	0.05253789962871052	-0.05952391485879023	-0.05256443506356247	-0.0240166400987595	0.293247722492034	0.01044638743240523	0.06567918604830948	-0.1796178628252361	0.2902030665836051	0.2902030665836042	-0.09564925519681203	0.007267203489438976	0.08160778254560132	0.034938124449399	0.1014301813285875	-0.08168985655879082	0.006649054582750499	-0.2508337517838274	0.1273241207392364	-0.09570439644253541	-0.02139440766149511	-29.97887518045115	-5.620940768478873	-37.12110583368898	0.1405429733013833	-3.4471030989155	-613.3241111980783	49.355022923974	-1.918881232382376	-1.62482811587028	-0.7885682294608293	9.273368075045019	0.3023686446347243	2.006010240095773	-5.656520802263292	9.202492229303379	9.202492229303234	-2.965014452455985	0.290781898410035	2.622418856212843	1.086659307731985	1.087864630869921e-07	3.150954257216582e-08	-6.265340832018752e-07	6.148122606244425e-07	5.630413775832292e-08	-3.441949065040594e-08	-7.087612723094259e-07
0.04	-0.01301991286153424	0.13261683668426	0.9318800858460494	0.2012661778117576	-0.2373872035690655	-0.2318562290854029	-0.2952151280725452	0.2389474268486549	0.2389474268486549	0.1511804054345495	0.1714298676902228	0.09152181863862895	0.05294008220008939	-0.07859224713211359	-0.06860407834962232	-0.0319413704784297	0.3848850259916362	0.01330280128722367	0.08556534987327777	-0.2347784027551457	0.3809866388512863	0.3809866388512845	-0.1245465153989349	0.009962755322065321	0.1073926012593533	0.04549431107628358	0.09519870396649954	-0.08359131332502345	0.007453832139466353	-0.2440093577535295	0.1170909402475196	-0.08919430381196748	-0.0163603704838439	-30.00874929402526	-8.506478307559718	-34.66847228536623	-0.399578347585106	-2.041209582990947	-612.5669048744383	52.97054549000372	-1.943759211733	-1.585111134034864	-0.8054960890108244	9.127514152112937	0.2433786907429079	1.968983391151828	-5.323562735444009	8.997317997427967	8.997317997428095	-2.770644331045205	0.2764861120872759	2.54040411277735	0.9948127238496274	1.277282889417011e-07	3.113831097723324e-08	-7.132655922846464e-07	7.345788114295482e-07	6.851282526911791e-08	-1.095283573895655e-07	-8.35803689998765e-07
0.05	-0.01389833803001444	0.1318526610214726	0.9315209508166837	0.2055610796941236	-0.2372398327671675	-0.2309039771495605	-0.2978292155298142	0.2431992435499947	0.2431992435499925	0.1497939539970495	0.1715410457310968	0.09272117797997627	0.05344711128141641	-0.0970603265052207	-0.08413716992209316	-0.03991227711242867	0.4737170425642536	0.01614498025072946	0.1047610706193691	-0.2875882145552849	0.4689681845589881	0.4689681845589743	-0.1525566469189231	0.01222833977198223	0.1323700692665443	0.05585870801483857	0.08971406044822805	-0.07628615672963319	0.00791676447439303	-0.2396826724728366	0.1126935414273641	-0.09050559786867259	-0.01183045983383582	-30.04482690560184	-9.919287784793603	-35.5511045367678	-0.1837436601411136	-1.694189575251843	-611.8538009484138	49.52900360045335	-1.793453068149228	-1.523311724890499	-0.7969067208554022	8.704306552247409	0.3007186531598839	1.87640882005694	-5.192059280696647	8.637269630254041	8.637269630252161	-2.788165110808798	0.1950559192602034	2.460046003342321	1.049309436618975	1.15739196747519e-07	2.098788106733046e-08	-6.160092989475785e-07	6.680875150151857e-07	6.628516582972387e-08	-1.847177559983762e-07	-7.440002550899196e-07
